<svg xmlns="http://www.w3.org/2000/svg" width="512" height="512" viewBox="0 0 512 512">
  <defs>
    <linearGradient id="bg" x1="0" y1="0" x2="1" y2="1">
      <stop offset="0" stop-color="#102a43"/>
      <stop offset="1" stop-color="#07131f"/>
    </linearGradient>
    <linearGradient id="track" x1="0" y1="0" x2="1" y2="1">
      <stop offset="0" stop-color="#62d8ff"/>
      <stop offset="1" stop-color="#1a8cff"/>
    </linearGradient>
  </defs>
  <rect width="512" height="512" rx="112" fill="url(#bg)"/>
  <path d="M92 354c68-12 97-55 126-104 35-59 76-105 202-94" fill="none" stroke="url(#track)" stroke-width="66" stroke-linecap="round"/>
  <path d="M90 354c72-11 105-56 135-106 34-57 71-94 197-91" fill="none" stroke="#f8fbff" stroke-width="8" stroke-linecap="round" stroke-dasharray="22 24"/>
  <circle cx="112" cy="354" r="45" fill="#ffb000"/>
  <circle cx="405" cy="158" r="45" fill="#ff5a47"/>
  <path d="M150 92h31v31h-31zm31 31h31v31h-31zm-31 31h31v31h-31zm31 31h31v31h-31z" fill="#f8fbff" opacity=".92"/>
</svg>
